<svg width="140" height="50" viewBox="0 0 140 50" fill="none" xmlns="http://www.w3.org/2000/svg">
<path d="M137.632 20.3331C136.203 20.3331 135.264 21.2224 135.264 22.3743C135.264 23.5262 136.202 24.4162 137.632 24.4162C139.063 24.4162 140 23.5268 140 22.3143C140 21.1624 139.062 20.3331 137.632 20.3331Z" fill="#D32986"/>
<path d="M62.4185 42.1231H61.9954V46.085H62.4185V42.1231Z" fill="#1D1D1B"/>
<path d="M66.4023 44.3587V46.085H65.9954V44.3975C66.0134 44.2725 66.0029 44.1451 65.9646 44.0248C65.9262 43.9045 65.8611 43.7945 65.7741 43.703C65.6871 43.6115 65.5805 43.5409 65.4623 43.4965C65.3441 43.4521 65.2174 43.4352 65.0917 43.4469C64.9486 43.4357 64.8049 43.4561 64.6706 43.5066C64.5363 43.557 64.4147 43.6363 64.3144 43.7389C64.2141 43.8415 64.1375 43.9648 64.0901 44.1002C64.0426 44.2356 64.0255 44.3797 64.0398 44.5225V46.085H63.6335V43.105H64.0223V43.6544C64.1452 43.4663 64.3158 43.3142 64.5168 43.2137C64.7178 43.1132 64.9418 43.0679 65.166 43.0825C65.3352 43.0681 65.5055 43.0915 65.6645 43.151C65.8236 43.2105 65.9674 43.3046 66.0856 43.4265C66.2038 43.5484 66.2934 43.6951 66.348 43.8559C66.4025 44.0167 66.4206 44.1876 66.401 44.3562" fill="#1D1D1B"/>
<path d="M69.9747 43.1082L68.6372 46.085H68.2197L66.8872 43.1082H67.3103L68.4353 45.6444L69.5735 43.1082H69.9747Z" fill="#1D1D1B"/>
<path d="M73.0779 44.7212H70.5623C70.5716 44.8671 70.6097 45.0097 70.6744 45.1407C70.739 45.2718 70.8289 45.3889 70.9389 45.4851C71.0489 45.5813 71.1768 45.6549 71.3154 45.7015C71.4539 45.7482 71.6002 45.767 71.746 45.7569C71.9186 45.7625 72.0902 45.7305 72.2491 45.6631C72.408 45.5956 72.5503 45.4943 72.666 45.3662L72.8948 45.6262C72.6787 45.8499 72.4019 46.0055 72.0986 46.0738C71.7952 46.1421 71.4785 46.1201 71.1874 46.0106C70.8963 45.9011 70.6437 45.7089 70.4605 45.4576C70.2774 45.2063 70.1717 44.9069 70.1567 44.5962C70.1469 44.3988 70.1779 44.2014 70.2478 44.0164C70.3176 43.8314 70.4248 43.6628 70.5626 43.521C70.7005 43.3793 70.866 43.2674 71.049 43.1924C71.2319 43.1174 71.4283 43.0808 71.626 43.085C71.8234 43.0801 72.0196 43.1163 72.2023 43.1913C72.3849 43.2662 72.55 43.3782 72.6871 43.5203C72.8241 43.6624 72.9302 43.8314 72.9986 44.0166C73.0669 44.2018 73.0961 44.3992 73.0842 44.5962C73.0842 44.63 73.0785 44.6756 73.0785 44.7212H73.0779ZM70.5629 44.4212H72.6954C72.6748 44.1526 72.5536 43.9016 72.3559 43.7184C72.1582 43.5353 71.8986 43.4336 71.6291 43.4336C71.3597 43.4336 71.1001 43.5353 70.9024 43.7184C70.7048 43.9016 70.5835 44.1526 70.5629 44.4212Z" fill="#1D1D1B"/>
<path d="M73.4942 45.7456L73.6773 45.4288C73.99 45.6489 74.3637 45.7657 74.7461 45.7625C75.318 45.7625 75.5523 45.57 75.5523 45.2756C75.5523 44.5 73.603 45.1113 73.603 43.9344C73.603 43.4475 74.0261 43.085 74.7905 43.085C75.1632 43.0794 75.5305 43.1753 75.853 43.3625L75.6755 43.685C75.4127 43.5122 75.1036 43.4232 74.7892 43.43C74.2461 43.43 74.0061 43.6394 74.0061 43.9225C74.0061 44.7263 75.9555 44.1206 75.9555 45.2644C75.9555 45.7794 75.498 46.1131 74.7148 46.1131C74.2779 46.1258 73.8486 45.9966 73.4911 45.745" fill="#1D1D1B"/>
<path d="M78.2904 45.9038C78.1103 46.0463 77.8856 46.1205 77.656 46.1131C77.5384 46.1269 77.4191 46.1141 77.3071 46.0757C77.195 46.0373 77.093 45.9742 77.0085 45.8912C76.924 45.8081 76.8592 45.7072 76.8189 45.5958C76.7785 45.4844 76.7637 45.3654 76.7754 45.2475V43.4475H76.2379V43.1081H76.7754V42.4575H77.181V43.1081H78.096V43.4475H77.181V45.225C77.171 45.2968 77.1773 45.3699 77.1996 45.4388C77.2218 45.5078 77.2594 45.5708 77.3095 45.6231C77.3596 45.6755 77.4209 45.7158 77.4889 45.741C77.5568 45.7662 77.6295 45.7757 77.7017 45.7688C77.864 45.773 78.0224 45.7187 78.1479 45.6156L78.2904 45.9038Z" fill="#1D1D1B"/>
<path d="M81.0336 42.1231H80.6105V46.085H81.0336V42.1231Z" fill="#1D1D1B"/>
<path d="M85.0173 44.3587V46.085H84.6117V44.3975C84.6297 44.2725 84.6192 44.1451 84.5809 44.0248C84.5425 43.9045 84.4774 43.7945 84.3904 43.703C84.3034 43.6115 84.1968 43.5409 84.0786 43.4965C83.9604 43.4521 83.8337 43.4352 83.708 43.4469C83.5649 43.4357 83.4212 43.4561 83.2869 43.5066C83.1526 43.557 83.031 43.6363 82.9307 43.7389C82.8304 43.8415 82.7538 43.9648 82.7064 44.1002C82.6589 44.2356 82.6417 44.3797 82.6561 44.5225V46.085H82.2523V43.105H82.6411V43.6544C82.764 43.4663 82.9346 43.3142 83.1356 43.2137C83.3366 43.1132 83.5606 43.0679 83.7848 43.0825C83.954 43.068 84.1244 43.0913 84.2834 43.1508C84.4425 43.2102 84.5864 43.3043 84.7046 43.4263C84.8228 43.5482 84.9125 43.6949 84.967 43.8558C85.0215 44.0166 85.0395 44.1876 85.0198 44.3562" fill="#1D1D1B"/>
<path d="M93.1974 42.1231L91.848 46.085H91.4018L90.2299 42.7056L89.0524 46.085H88.6149L87.2655 42.1231H87.6999L88.8549 45.5306L90.0493 42.1231H90.4436L91.6211 45.5475L92.7936 42.1231H93.1974Z" fill="#1D1D1B"/>
<path d="M96.7342 44.3588V46.085H96.3286V44.3975C96.3466 44.2726 96.3361 44.1451 96.2978 44.0248C96.2594 43.9045 96.1943 43.7945 96.1073 43.703C96.0203 43.6115 95.9137 43.5409 95.7955 43.4965C95.6773 43.4522 95.5506 43.4352 95.4248 43.4469C95.2818 43.4357 95.1381 43.4561 95.0038 43.5066C94.8695 43.557 94.7479 43.6364 94.6476 43.7389C94.5473 43.8415 94.4707 43.9648 94.4233 44.1002C94.3758 44.2356 94.3586 44.3798 94.373 44.5225V46.085H93.9642V41.885H94.3699V43.6294C94.495 43.4499 94.6642 43.3056 94.8612 43.2103C95.0582 43.1151 95.2764 43.0722 95.4948 43.0856C95.664 43.0713 95.8343 43.0947 95.9933 43.1542C96.1524 43.2137 96.2962 43.3078 96.4144 43.4297C96.5326 43.5516 96.6222 43.6982 96.6768 43.859C96.7313 44.0198 96.7495 44.1907 96.7299 44.3594" fill="#1D1D1B"/>
<path d="M100.106 44.24V46.085H99.7173V45.6206C99.6043 45.7873 99.4489 45.9208 99.2671 46.0074C99.0852 46.094 98.8836 46.1305 98.683 46.1131C98.0023 46.1131 97.5848 45.7619 97.5848 45.2475C97.5848 44.7888 97.8823 44.4038 98.7455 44.4038H99.7005V44.2225C99.7005 43.7131 99.4086 43.4356 98.8486 43.4356C98.4842 43.4308 98.1299 43.5553 97.8486 43.7869L97.6655 43.4863C98.0151 43.2157 98.4472 43.0737 98.8892 43.0844C99.0493 43.06 99.2128 43.0725 99.3673 43.1209C99.5218 43.1694 99.6632 43.2525 99.7806 43.3639C99.8981 43.4754 99.9885 43.6122 100.045 43.7639C100.102 43.9156 100.123 44.0783 100.107 44.2394L100.106 44.24ZM99.7011 45.19V44.7031H98.7573C98.1742 44.7031 97.9855 44.9294 97.9855 45.235C97.9855 45.58 98.2661 45.7975 98.7461 45.7975C98.9488 45.8102 99.1504 45.7585 99.3219 45.6497C99.4935 45.5409 99.6262 45.3807 99.7011 45.1919" fill="#1D1D1B"/>
<path d="M102.792 45.9038C102.612 46.0463 102.387 46.1205 102.158 46.1131C102.04 46.1269 101.921 46.1141 101.809 46.0757C101.697 46.0373 101.595 45.9742 101.51 45.8912C101.426 45.8081 101.361 45.7072 101.321 45.5958C101.28 45.4844 101.266 45.3654 101.277 45.2475V43.4475H100.74V43.1081H101.277V42.4575H101.683V43.1081H102.598V43.4475H101.683V45.225C101.673 45.2968 101.679 45.3699 101.701 45.4388C101.724 45.5078 101.761 45.5708 101.811 45.6231C101.861 45.6755 101.923 45.7158 101.991 45.741C102.059 45.7662 102.131 45.7757 102.204 45.7688C102.366 45.773 102.524 45.7187 102.65 45.6156L102.792 45.9038Z" fill="#1D1D1B"/>
<path d="M103.877 42.1625C103.871 42.2734 103.846 42.3824 103.803 42.4849L103.557 43.2662H103.283L103.484 42.4537C103.421 42.4363 103.366 42.3984 103.328 42.346C103.289 42.2937 103.269 42.2299 103.272 42.165C103.27 42.1246 103.277 42.0844 103.292 42.0468C103.306 42.0091 103.328 41.9749 103.357 41.9463C103.385 41.9176 103.419 41.8951 103.457 41.8801C103.494 41.8652 103.534 41.8581 103.575 41.8593C103.615 41.8586 103.655 41.8659 103.692 41.8811C103.73 41.8962 103.763 41.9187 103.792 41.9473C103.82 41.9758 103.842 42.0099 103.857 42.0473C103.872 42.0847 103.879 42.1247 103.878 42.165" fill="#1D1D1B"/>
<path d="M104.232 45.7456L104.415 45.4288C104.728 45.649 105.102 45.7657 105.484 45.7625C106.056 45.7625 106.29 45.57 106.29 45.2756C106.29 44.5 104.341 45.1113 104.341 43.9344C104.341 43.4475 104.764 43.085 105.529 43.085C105.901 43.0794 106.269 43.1753 106.591 43.3625L106.414 43.685C106.151 43.5122 105.842 43.4232 105.528 43.43C104.985 43.43 104.745 43.6394 104.745 43.9225C104.745 44.7263 106.694 44.1206 106.694 45.2644C106.694 45.7794 106.237 46.1131 105.454 46.1131C105.017 46.1258 104.588 45.9966 104.23 45.745" fill="#1D1D1B"/>
<path d="M109.794 42.1231H109.37V46.085H109.794V42.1231Z" fill="#1D1D1B"/>
<path d="M115.973 44.3588V46.085H115.567V44.3975C115.567 43.7694 115.247 43.4469 114.704 43.4469C114.564 43.4392 114.424 43.4623 114.294 43.5146C114.163 43.567 114.046 43.6473 113.95 43.7498C113.854 43.8524 113.782 43.9747 113.738 44.1082C113.695 44.2417 113.681 44.3831 113.698 44.5225V46.085H113.292V44.3975C113.292 43.7694 112.971 43.4469 112.423 43.4469C112.283 43.4397 112.143 43.4632 112.013 43.5158C111.883 43.5683 111.766 43.6486 111.67 43.751C111.574 43.8534 111.502 43.9755 111.458 44.1088C111.414 44.242 111.4 44.3832 111.417 44.5225V46.085H111.01V43.105H111.4V43.6481C111.516 43.4637 111.68 43.3139 111.874 43.2143C112.068 43.1147 112.285 43.069 112.503 43.0819C112.724 43.0645 112.945 43.1155 113.136 43.228C113.328 43.3404 113.48 43.5089 113.572 43.7106C113.695 43.5086 113.87 43.3435 114.079 43.2328C114.288 43.1221 114.523 43.07 114.759 43.0819C114.927 43.068 115.096 43.092 115.254 43.152C115.412 43.212 115.554 43.3066 115.67 43.4288C115.786 43.5509 115.874 43.6976 115.926 43.858C115.978 44.0184 115.994 44.1884 115.972 44.3556" fill="#1D1D1B"/>
<path d="M120.122 44.5962C120.131 44.7965 120.099 44.9966 120.027 45.1839C119.956 45.3711 119.846 45.5414 119.705 45.684C119.564 45.8266 119.395 45.9384 119.208 46.0122C119.022 46.0861 118.822 46.1204 118.622 46.1131C118.397 46.121 118.173 46.071 117.973 45.9679C117.773 45.8648 117.602 45.7121 117.478 45.5244V47.1825H117.072V43.1069H117.461V43.6956C117.584 43.5008 117.756 43.3417 117.959 43.2342C118.163 43.1268 118.392 43.0749 118.622 43.0837C118.822 43.0763 119.021 43.1104 119.207 43.1838C119.393 43.2573 119.562 43.3685 119.703 43.5105C119.844 43.6525 119.954 43.8222 120.026 44.0089C120.098 44.1955 120.131 44.3951 120.122 44.595V44.5962ZM119.716 44.595C119.708 44.375 119.636 44.1622 119.508 43.9831C119.38 43.8039 119.203 43.6664 118.997 43.5875C118.792 43.5087 118.568 43.4921 118.353 43.5397C118.138 43.5874 117.942 43.6972 117.789 43.8555C117.636 44.0139 117.533 44.2137 117.493 44.4301C117.453 44.6465 117.477 44.8699 117.563 45.0725C117.649 45.2751 117.793 45.4479 117.977 45.5693C118.16 45.6908 118.375 45.7556 118.596 45.7556C118.747 45.7585 118.897 45.7301 119.037 45.6723C119.177 45.6145 119.304 45.5284 119.409 45.4195C119.514 45.3106 119.595 45.1811 119.648 45.0393C119.701 44.8974 119.724 44.7462 119.716 44.595Z" fill="#1D1D1B"/>
<path d="M120.875 44.5963C120.872 44.2934 120.96 43.9966 121.126 43.7435C121.293 43.4905 121.531 43.2925 121.81 43.1747C122.089 43.057 122.396 43.0247 122.694 43.082C122.991 43.1394 123.265 43.2837 123.48 43.4968C123.695 43.7099 123.842 43.9821 123.903 44.2789C123.963 44.5757 123.934 44.8837 123.819 45.1639C123.704 45.4442 123.509 45.684 123.257 45.853C123.006 46.022 122.71 46.1125 122.407 46.1131C122.205 46.1216 122.003 46.0882 121.815 46.0152C121.626 45.9421 121.454 45.831 121.311 45.6886C121.167 45.5463 121.054 45.3758 120.979 45.1879C120.904 44.9999 120.869 44.7985 120.875 44.5963ZM123.522 44.5963C123.514 44.3768 123.441 44.1646 123.313 43.9862C123.185 43.8077 123.007 43.6708 122.802 43.5927C122.597 43.5145 122.373 43.4984 122.159 43.5465C121.945 43.5946 121.749 43.7047 121.597 43.8631C121.445 44.0214 121.343 44.2211 121.303 44.4371C121.264 44.6532 121.289 44.876 121.375 45.078C121.461 45.2799 121.605 45.4519 121.789 45.5727C121.972 45.6934 122.187 45.7575 122.407 45.7569C122.558 45.7606 122.709 45.7327 122.849 45.6751C122.989 45.6175 123.115 45.5313 123.22 45.4222C123.325 45.313 123.406 45.1832 123.458 45.041C123.51 44.8988 123.532 44.7473 123.522 44.5963Z" fill="#1D1D1B"/>
<path d="M126.505 43.085V43.4756C126.47 43.4756 126.437 43.47 126.408 43.47C126.265 43.4621 126.123 43.4858 125.991 43.5395C125.859 43.5932 125.74 43.6754 125.643 43.7804C125.546 43.8853 125.474 44.0104 125.431 44.1466C125.389 44.2828 125.377 44.4267 125.396 44.5681V46.085H124.99V43.1081H125.379V43.6912C125.484 43.4892 125.648 43.3234 125.849 43.2154C126.049 43.1074 126.278 43.0622 126.504 43.0856" fill="#1D1D1B"/>
<path d="M128.752 45.9038C128.572 46.0463 128.347 46.1205 128.117 46.1131C128 46.1269 127.88 46.1141 127.768 46.0757C127.656 46.0373 127.554 45.9742 127.47 45.8912C127.385 45.8081 127.32 45.7072 127.28 45.5958C127.24 45.4844 127.225 45.3654 127.237 45.2475V43.4475H126.699V43.1081H127.237V42.4575H127.642V43.1081H128.557V43.4475H127.642V45.225C127.632 45.2968 127.638 45.3699 127.66 45.4388C127.682 45.5078 127.72 45.5708 127.77 45.6231C127.82 45.6755 127.882 45.7158 127.95 45.741C128.017 45.7662 128.09 45.7757 128.162 45.7688C128.325 45.773 128.483 45.7187 128.609 45.6156L128.752 45.9038Z" fill="#1D1D1B"/>
<path d="M131.758 44.24V46.085H131.369V45.6206C131.256 45.7873 131.101 45.9208 130.919 46.0074C130.737 46.094 130.535 46.1305 130.335 46.1131C129.654 46.1131 129.237 45.7619 129.237 45.2475C129.237 44.7888 129.534 44.4038 130.397 44.4038H131.352V44.2225C131.352 43.7131 131.06 43.4356 130.5 43.4356C130.136 43.4308 129.782 43.5553 129.5 43.7869L129.317 43.4863C129.667 43.2157 130.099 43.0737 130.541 43.0844C130.701 43.06 130.865 43.0725 131.019 43.1209C131.174 43.1694 131.315 43.2525 131.432 43.3639C131.55 43.4754 131.64 43.6122 131.697 43.7639C131.753 43.9156 131.775 44.0783 131.759 44.2394L131.758 44.24ZM131.353 45.19V44.7031H130.409C129.826 44.7031 129.637 44.9294 129.637 45.235C129.637 45.58 129.918 45.7975 130.398 45.7975C130.601 45.8102 130.802 45.7585 130.974 45.6497C131.145 45.5409 131.278 45.3807 131.353 45.1919" fill="#1D1D1B"/>
<path d="M135.627 44.3587V46.085H135.222V44.3975C135.24 44.2725 135.229 44.1451 135.191 44.0248C135.153 43.9045 135.087 43.7945 135 43.703C134.913 43.6115 134.807 43.5409 134.689 43.4965C134.57 43.4521 134.444 43.4352 134.318 43.4469C134.175 43.4357 134.031 43.4561 133.897 43.5066C133.763 43.557 133.641 43.6363 133.541 43.7389C133.44 43.8415 133.364 43.9648 133.316 44.1002C133.269 44.2356 133.252 44.3797 133.266 44.5225V46.085H132.86V43.105H133.249V43.6544C133.372 43.4663 133.543 43.3143 133.743 43.2138C133.944 43.1133 134.168 43.068 134.392 43.0825C134.562 43.0681 134.732 43.0915 134.891 43.151C135.05 43.2105 135.194 43.3046 135.312 43.4265C135.43 43.5484 135.52 43.6951 135.574 43.8559C135.629 44.0167 135.647 44.1876 135.627 44.3562" fill="#1D1D1B"/>
<path d="M138.314 45.9038C138.134 46.0463 137.909 46.1205 137.679 46.1131C137.562 46.1269 137.442 46.1141 137.33 46.0757C137.218 46.0373 137.116 45.9742 137.032 45.8912C136.947 45.8081 136.882 45.7072 136.842 45.5958C136.802 45.4844 136.787 45.3654 136.799 45.2475V43.4475H136.261V43.1081H136.799V42.4575H137.204V43.1081H138.119V43.4475H137.204V45.225C137.194 45.2968 137.201 45.3699 137.223 45.4388C137.245 45.5078 137.283 45.5708 137.333 45.6231C137.383 45.6755 137.444 45.7158 137.512 45.741C137.58 45.7662 137.653 45.7757 137.725 45.7688C137.887 45.773 138.046 45.7187 138.171 45.6156L138.314 45.9038Z" fill="#1D1D1B"/>
<path d="M67.1729 8.23243H61.661V2.91992H57.6191V17.0649H61.661V11.5474H67.1729V17.0649H71.2154V2.91742H67.1729V8.23243Z" fill="#D32986"/>
<path d="M79.686 5.92807C76.1954 5.92807 73.6023 8.27307 73.6023 11.5668C73.6023 14.8412 76.1542 17.2462 80.0942 17.2462C82.1973 17.2462 83.7486 16.6393 84.8098 15.4675L82.7686 13.3656C82.0771 14.0074 81.1595 14.349 80.2167 14.3156C78.7873 14.3156 77.8279 13.6687 77.5011 12.5575H85.5442C85.5648 12.2543 85.6067 11.8906 85.6067 11.6075C85.6067 7.98995 82.9529 5.92807 79.6867 5.92807H79.686ZM77.4398 10.5362C77.5391 10.0079 77.8199 9.53084 78.2337 9.18761C78.6475 8.84438 79.1682 8.65652 79.7057 8.65652C80.2433 8.65652 80.764 8.84438 81.1778 9.18761C81.5915 9.53084 81.8724 10.0079 81.9717 10.5362H77.4398Z" fill="#D32986"/>
<path d="M92.526 5.92806C90.814 5.89856 89.1266 6.33889 87.6473 7.20118L88.9535 9.80869C89.831 9.18903 90.8793 8.85709 91.9535 8.85869C93.4848 8.85869 94.2404 9.48369 94.3016 10.5968H92.0966C88.6672 10.5968 87.1772 11.8468 87.1772 13.8712C87.1772 15.7712 88.6473 17.2462 91.3023 17.2462C92.9154 17.2462 94.0179 16.7006 94.5685 15.6493V17.0643H98.1823V10.9812C98.1823 7.50493 96.1198 5.92806 92.5273 5.92806H92.526ZM94.3035 13.5474C94.1655 13.9394 93.9036 14.2757 93.5574 14.5054C93.2112 14.7351 92.7995 14.8458 92.3848 14.8206C91.466 14.8206 90.9354 14.3556 90.9354 13.7087C90.9354 13.0418 91.3848 12.5968 92.6298 12.5968H94.3035V13.5474Z" fill="#D32986"/>
<path d="M105.325 2.06808H101.447V17.065H105.325V2.06808Z" fill="#D32986"/>
<path d="M114.96 14.2756C114.798 14.2835 114.636 14.2558 114.485 14.1945C114.334 14.1333 114.199 14.0399 114.088 13.9208C113.977 13.8018 113.894 13.66 113.844 13.5054C113.793 13.3508 113.777 13.187 113.797 13.0256V9.38492H116.328V6.5143H113.797V3.66492H109.918V6.5143H108.305V9.3843H109.918V13.0624C109.918 15.8718 111.572 17.2462 114.409 17.2462C115.347 17.2822 116.277 17.0664 117.104 16.6212L116.144 13.9337C115.792 14.162 115.38 14.2816 114.96 14.2774" fill="#D32986"/>
<path d="M126.617 5.92807C125.397 5.89036 124.208 6.31648 123.289 7.12057V2.06744H119.411V17.0643H123.289V11.7693C123.289 9.95058 124.249 9.18183 125.494 9.18183C126.619 9.18183 127.311 9.8487 127.311 11.425V17.0637H131.19V10.7987C131.19 7.40308 129.209 5.92745 126.617 5.92745" fill="#D32986"/>
<path d="M136.374 4.8974C137.803 4.8974 138.742 4.00865 138.742 2.79552C138.742 1.64302 137.804 0.81427 136.374 0.81427C134.943 0.81427 134.005 1.70365 134.005 2.85615C134.005 4.00865 134.943 4.8974 136.374 4.8974Z" fill="#D32986"/>
<path d="M138.313 6.11057H134.434V17.065H138.313V6.11057Z" fill="#D32986"/>
<path d="M76.1861 22.6743L73.3517 31.7893L70.6329 22.6743H67.1242L64.2704 31.7087L61.5517 22.6743H57.6185L61.9935 36.8225H66.081L68.7804 28.2124L71.3636 36.8225H75.4529L79.8279 22.6743H76.1861Z" fill="#D32986"/>
<path d="M85.0935 25.6862C81.6023 25.6862 79.0098 28.0306 79.0098 31.325C79.0098 34.5994 81.5616 37.0044 85.5016 37.0044C87.6048 37.0044 89.1554 36.3981 90.2173 35.2256L88.176 33.1237C87.4846 33.7656 86.5669 34.107 85.6242 34.0731C84.1948 34.0731 83.2354 33.4262 82.9085 32.315H90.9523C90.9729 32.0119 91.0148 31.6481 91.0148 31.365C91.0148 27.7475 88.361 25.6856 85.0948 25.6856L85.0935 25.6862ZM82.8491 30.2937C82.9485 29.7654 83.2293 29.2884 83.643 28.9451C84.0568 28.6019 84.5775 28.4141 85.1151 28.4141C85.6527 28.4141 86.1734 28.6019 86.5871 28.9451C87.0009 29.2884 87.2817 29.7654 87.381 30.2937H82.8491Z" fill="#D32986"/>
<path d="M97.2199 25.6856C95.5078 25.6561 93.8204 26.0965 92.3411 26.9587L93.6474 29.5662C94.5249 28.9466 95.5731 28.6146 96.6473 28.6162C98.1786 28.6162 98.9336 29.2412 98.9949 30.3543H96.7905C93.3611 30.3543 91.8711 31.6043 91.8711 33.6287C91.8711 35.5287 93.3405 37.0037 95.9961 37.0037C97.6086 37.0037 98.7117 36.4581 99.2624 35.4069V36.8219H102.875V30.7381C102.875 27.2618 100.813 25.6856 97.2211 25.6856H97.2199ZM98.9955 33.3044C98.8576 33.6963 98.5957 34.0327 98.2494 34.2624C97.9032 34.4922 97.4915 34.6028 97.0767 34.5775C96.158 34.5775 95.6274 34.1125 95.6274 33.4656C95.6274 32.7987 96.0761 32.3537 97.3211 32.3537H98.9955V33.3044Z" fill="#D32986"/>
<path d="M108.794 21.8256H104.915V36.8225H108.794V21.8256Z" fill="#D32986"/>
<path d="M117.203 34.0331C117.041 34.041 116.879 34.0134 116.728 33.9521C116.578 33.8908 116.442 33.7974 116.331 33.6784C116.22 33.5594 116.137 33.4176 116.087 33.263C116.036 33.1083 116.02 32.9446 116.04 32.7831V29.1425H118.571V26.2719H116.04V23.4225H112.161V26.2719H110.547V29.1419H112.16V32.82C112.16 35.6325 113.813 37.0038 116.651 37.0038C117.589 37.0397 118.519 36.8239 119.345 36.3788L118.386 33.6912C118.034 33.9192 117.622 34.0385 117.202 34.0344" fill="#D32986"/>
<path d="M128.044 25.6862C126.823 25.6485 125.634 26.0746 124.716 26.8787V21.8256H120.837V36.8225H124.716V31.5269C124.716 29.7081 125.676 28.94 126.921 28.94C128.046 28.94 128.738 29.6069 128.738 31.1837V36.8225H132.617V30.5569C132.617 27.1612 130.636 25.6862 128.044 25.6862Z" fill="#D32986"/>
<path d="M138.314 25.8681H134.435V36.8225H138.314V25.8681Z" fill="#D32986"/>
<path d="M23.7641 5.48932C16.366 10.5974 15.3035 15.0675 14.6972 19.5375C14.091 24.0075 17.1253 33.2875 26.6478 33.2875C36.1704 33.2875 39.6254 26 39.661 21.1875C39.6966 16.375 37.6972 10.8881 33.7429 7.92807L29.0003 10.7856C35.2222 15.3762 35.7535 25.9106 29.1253 27.2625C22.4972 28.6143 16.6316 22.2543 21.9935 15.1925C27.3553 8.13057 31.306 6.16057 36.1185 5.44244C41.2435 4.67994 50.021 8.57932 48.6547 19.3968C47.2885 30.2143 40.6604 36.4775 37.0685 40.0837C33.4766 43.69 24.9278 47.3962 16.7835 39.6831C8.63907 31.97 5.40156 24.6081 5.50031 16.8256C5.59906 9.04307 14.5047 4.32556 21.2328 5.47681C21.2328 5.47681 24.1166 3.22306 26.8478 1.26993C10.5628 -3.83882 0.750307 7.57994 0.0903063 15.7437C-0.569695 23.9075 2.46531 29.9168 6.66657 36.5831C10.8678 43.2494 19.8185 50 26.901 50C33.9835 50 40.3566 44.7412 45.4635 39.2825C50.5704 33.8237 59.981 15.3606 49.601 6.08994C39.6104 -2.83382 31.1628 0.380558 23.7641 5.48932Z" fill="#D32986"/>
</svg>
